<?xml version="1.0" encoding="UTF-8"?>
<svg xmlns="http://www.w3.org/2000/svg" viewBox="0 0 2300 900" width="2300" height="900" role="img" aria-labelledby="title desc">
  <title id="title">DRA-backed extended resource request flow</title>
  <desc id="desc">Flow diagram showing how an extended resource request is resolved through DRA, the scheduler, kubelet, and the device plugin fallback path.</desc>
  <defs>
    <marker id="arrow-blue" viewBox="0 0 10 10" refX="9" refY="5" markerWidth="9" markerHeight="9" orient="auto-start-reverse">
      <path d="M 0 0 L 10 5 L 0 10 z" fill="#2563eb"/>
    </marker>
    <marker id="arrow-slate" viewBox="0 0 10 10" refX="9" refY="5" markerWidth="9" markerHeight="9" orient="auto-start-reverse">
      <path d="M 0 0 L 10 5 L 0 10 z" fill="#64748b"/>
    </marker>
    <marker id="arrow-orange" viewBox="0 0 10 10" refX="9" refY="5" markerWidth="9" markerHeight="9" orient="auto-start-reverse">
      <path d="M 0 0 L 10 5 L 0 10 z" fill="#d97706"/>
    </marker>
  </defs>
  <style>
    text {
      font-family: "Helvetica Neue", Arial, sans-serif;
      fill: #0f172a;
    }
    .group {
      stroke: #1e293b;
      stroke-width: 2.5;
    }
    .group-title {
      font-size: 20px;
      font-weight: 700;
      text-anchor: middle;
    }
    .group-subtitle {
      font-size: 17px;
      font-weight: 600;
      text-anchor: middle;
      fill: #334155;
    }
    .box {
      fill: #ffffff;
      stroke: #334155;
      stroke-width: 2;
    }
    .box-title {
      font-size: 15px;
      font-weight: 700;
      text-anchor: middle;
    }
    .box-body {
      font-size: 13px;
      font-weight: 500;
      text-anchor: middle;
      fill: #334155;
    }
    .group-workload {
      fill: #e0f2fe;
    }
    .group-api {
      fill: #ecfeff;
    }
    .group-scheduler {
      fill: #fff7ed;
    }
    .group-node-a {
      fill: #f0fdf4;
    }
    .group-node-b {
      fill: #f8fafc;
    }
    .note {
      fill: #fef3c7;
      stroke: #d97706;
      stroke-width: 2.5;
      stroke-dasharray: 10 8;
    }
    .flow {
      fill: none;
      stroke: #2563eb;
      stroke-width: 3;
      stroke-linecap: round;
      stroke-linejoin: round;
      marker-end: url(#arrow-blue);
    }
    .flow-muted {
      fill: none;
      stroke: #64748b;
      stroke-width: 3;
      stroke-linecap: round;
      stroke-linejoin: round;
      stroke-dasharray: 10 8;
      marker-end: url(#arrow-slate);
    }
    .note-link {
      fill: none;
      stroke: #d97706;
      stroke-width: 2.5;
      stroke-linecap: round;
      stroke-linejoin: round;
      stroke-dasharray: 8 7;
      marker-end: url(#arrow-orange);
    }
    .edge-label {
      font-size: 13px;
      font-weight: 600;
      fill: #475569;
      text-anchor: middle;
    }
  </style>

  <rect x="0" y="0" width="2300" height="900" fill="#ffffff"/>

  <rect class="group group-workload" x="40" y="80" width="250" height="170" rx="18" ry="18"/>
  <text class="group-title" x="165" y="120">Workload</text>
  <rect class="box" x="90" y="145" width="150" height="72" rx="12" ry="12"/>
  <text class="box-title" x="165" y="174">Pod spec</text>
  <text class="box-body" x="165" y="198">limits: example.com/gpu=1</text>

  <rect class="group group-api" x="340" y="40" width="650" height="400" rx="18" ry="18"/>
  <text class="group-title" x="665" y="80">API Server + etcd</text>
  <rect class="box" x="390" y="100" width="220" height="76" rx="12" ry="12"/>
  <text class="box-title" x="500" y="129">DeviceClass</text>
  <text class="box-body" x="500" y="152">extendedResourceName mapping</text>
  <rect class="box" x="390" y="205" width="220" height="76" rx="12" ry="12"/>
  <text class="box-title" x="500" y="234">ResourceSlice</text>
  <text class="box-body" x="500" y="257">DRA device inventory per node</text>
  <rect class="box" x="680" y="100" width="250" height="76" rx="12" ry="12"/>
  <text class="box-title" x="805" y="129">Node.status.capacity</text>
  <text class="box-body" x="805" y="152">(device plugin path)</text>
  <rect class="box" x="680" y="205" width="250" height="76" rx="12" ry="12"/>
  <text class="box-title" x="805" y="234">Special ResourceClaim</text>
  <text class="box-body" x="805" y="257">(created by scheduler)</text>
  <rect class="box" x="470" y="315" width="390" height="88" rx="12" ry="12"/>
  <text class="box-title" x="665" y="345">Pod.status.extendedResourceClaimStatus</text>
  <text class="box-body" x="665" y="368">container/resource -&gt; requestName</text>

  <rect class="group group-scheduler" x="1040" y="110" width="350" height="340" rx="18" ry="18"/>
  <text class="group-title" x="1215" y="150">kube-scheduler</text>
  <rect class="box" x="1090" y="175" width="250" height="74" rx="12" ry="12"/>
  <text class="box-title" x="1215" y="204">NodeResourcesFit</text>
  <text class="box-body" x="1215" y="227">ScalarResources + DynamicResources</text>
  <rect class="box" x="1090" y="275" width="250" height="74" rx="12" ry="12"/>
  <text class="box-title" x="1215" y="304">dynamicresources plugin</text>
  <text class="box-body" x="1215" y="327">PreFilter -&gt; Filter -&gt; Reserve -&gt; PreBind</text>
  <rect class="box" x="1090" y="375" width="250" height="74" rx="12" ry="12"/>
  <text class="box-title" x="1215" y="404">DRA allocator</text>
  <text class="box-body" x="1215" y="427">build DeviceRequests + pick devices</text>

  <rect class="group group-node-a" x="1470" y="40" width="770" height="390" rx="18" ry="18"/>
  <text class="group-title" x="1855" y="78">Node A</text>
  <text class="group-subtitle" x="1855" y="103">(DRA-backed extended resource)</text>
  <rect class="box" x="1510" y="225" width="120" height="74" rx="12" ry="12"/>
  <text class="box-title" x="1570" y="254">kubelet</text>
  <text class="box-body" x="1570" y="277">DRA manager</text>
  <rect class="box" x="1650" y="225" width="180" height="74" rx="12" ry="12"/>
  <text class="box-title" x="1740" y="254">DRA Driver</text>
  <text class="box-body" x="1740" y="277">PrepareResources</text>
  <rect class="box" x="1850" y="225" width="110" height="74" rx="12" ry="12"/>
  <text class="box-title" x="1905" y="262">CDI</text>
  <rect class="box" x="1980" y="225" width="110" height="74" rx="12" ry="12"/>
  <text class="box-title" x="2035" y="254">Container</text>
  <text class="box-body" x="2035" y="277">Runtime</text>
  <rect class="box" x="2110" y="225" width="90" height="74" rx="12" ry="12"/>
  <text class="box-title" x="2155" y="262">Containers</text>

  <rect class="group group-node-b" x="1470" y="500" width="770" height="160" rx="18" ry="18"/>
  <text class="group-title" x="1855" y="540">Node B (legacy device plugin)</text>
  <rect class="box" x="1760" y="560" width="190" height="74" rx="12" ry="12"/>
  <text class="box-title" x="1855" y="599">Device Plugin</text>

  <rect class="note" x="700" y="580" width="560" height="116" rx="16" ry="16"/>
  <text class="box-title" x="980" y="614">Constraint:</text>
  <text class="box-body" x="980" y="639">One node cannot expose the same resource name</text>
  <text class="box-body" x="980" y="661">from both DRA and Device Plugin.</text>

  <path class="flow" d="M 240 181 L 300 181 L 300 460 L 1060 460 L 1060 212 L 1090 212"/>
  <path class="flow" d="M 610 138 L 660 138 L 660 212 L 1090 212"/>
  <path class="flow" d="M 610 243 L 700 243 L 700 212 L 1090 212"/>
  <path class="flow" d="M 930 138 L 970 138 L 970 212 L 1090 212"/>

  <path class="flow" d="M 1215 249 L 1215 275"/>
  <path class="flow" d="M 1215 349 L 1215 375"/>
  <path class="flow" d="M 1090 412 L 1010 412 L 1010 243 L 930 243"/>
  <path class="flow" d="M 1090 312 L 1020 312 L 1020 359 L 860 359"/>

  <path class="flow" d="M 860 359 L 950 359 L 950 470 L 1430 470 L 1430 262 L 1510 262"/>
  <path class="flow" d="M 930 243 L 1000 243 L 1000 90 L 1430 90 L 1430 262 L 1510 262"/>
  <path class="flow" d="M 1630 262 L 1650 262"/>
  <path class="flow" d="M 1830 262 L 1850 262"/>
  <path class="flow" d="M 1960 262 L 1980 262"/>
  <path class="flow" d="M 2090 262 L 2110 262"/>

  <path class="flow-muted" d="M 1340 212 L 1420 212 L 1420 597 L 1760 597"/>
  <text class="edge-label" x="1590" y="240">if node uses device plugin capacity</text>

  <path class="note-link" d="M 1260 616 L 1410 616 L 1410 240 L 1470 240"/>
  <path class="note-link" d="M 1260 660 L 1410 660 L 1410 580 L 1470 580"/>
</svg>
