<?xml version="1.0" encoding="UTF-8"?>
<svg xmlns="http://www.w3.org/2000/svg" viewBox="0 0 2360 980" width="2360" height="980" role="img" aria-labelledby="title desc">
  <title id="title">DRA-backed extended resource request flow</title>
  <desc id="desc">Flow diagram showing how an extended resource request is resolved through DRA, the scheduler, kubelet, and the device plugin fallback path.</desc>
  <defs>
    <marker id="arrow-blue" viewBox="0 0 10 10" refX="9" refY="5" markerWidth="8" markerHeight="8" orient="auto-start-reverse">
      <path d="M 0 0 L 10 5 L 0 10 z" fill="#2563eb"/>
    </marker>
    <marker id="arrow-slate" viewBox="0 0 10 10" refX="9" refY="5" markerWidth="8" markerHeight="8" orient="auto-start-reverse">
      <path d="M 0 0 L 10 5 L 0 10 z" fill="#64748b"/>
    </marker>
    <marker id="arrow-orange" viewBox="0 0 10 10" refX="9" refY="5" markerWidth="8" markerHeight="8" orient="auto-start-reverse">
      <path d="M 0 0 L 10 5 L 0 10 z" fill="#f97316"/>
    </marker>
  </defs>
  <style>
    text {
      font-family: "Helvetica Neue", Arial, sans-serif;
      fill: #0f172a;
    }
    .group {
      stroke: #1e293b;
      stroke-width: 2.5;
    }
    .group-title {
      font-size: 20px;
      font-weight: 700;
      text-anchor: middle;
    }
    .group-subtitle {
      font-size: 16px;
      font-weight: 600;
      text-anchor: middle;
      fill: #334155;
    }
    .box {
      fill: #ffffff;
      stroke: #334155;
      stroke-width: 2;
    }
    .box-title {
      font-size: 15px;
      font-weight: 700;
      text-anchor: middle;
    }
    .box-title-small {
      font-size: 14px;
      font-weight: 700;
      text-anchor: middle;
    }
    .box-body {
      font-size: 12.5px;
      font-weight: 500;
      text-anchor: middle;
      fill: #334155;
    }
    .group-workload {
      fill: #e0f2fe;
    }
    .group-api {
      fill: #ecfeff;
    }
    .group-scheduler {
      fill: #fff7ed;
    }
    .group-node-a {
      fill: #f0fdf4;
    }
    .group-node-b {
      fill: #f8fafc;
    }
    .note {
      fill: #fef3c7;
      stroke: #f97316;
      stroke-width: 2.3;
      stroke-dasharray: 9 7;
    }
    .flow {
      fill: none;
      stroke: #2563eb;
      stroke-width: 2.8;
      stroke-linecap: round;
      stroke-linejoin: round;
      marker-end: url(#arrow-blue);
    }
    .flow-muted {
      fill: none;
      stroke: #64748b;
      stroke-width: 2.6;
      stroke-linecap: round;
      stroke-linejoin: round;
      stroke-dasharray: 9 7;
      marker-end: url(#arrow-slate);
    }
    .note-link {
      fill: none;
      stroke: #f97316;
      stroke-width: 2.3;
      stroke-linecap: round;
      stroke-linejoin: round;
      stroke-dasharray: 7 6;
      marker-end: url(#arrow-orange);
    }
    .label-bg {
      fill: #ffffff;
      fill-opacity: 0.96;
      stroke: #cbd5e1;
      stroke-width: 1.1;
    }
    .edge-label {
      font-size: 12.5px;
      font-weight: 600;
      fill: #475569;
      text-anchor: start;
    }
  </style>

  <rect x="0" y="0" width="2360" height="980" fill="#ffffff"/>

  <rect class="group group-workload" x="40" y="120" width="260" height="180" rx="18" ry="18"/>
  <text class="group-title" x="170" y="160">Workload</text>
  <rect class="box" x="95" y="190" width="170" height="84" rx="12" ry="12"/>
  <text class="box-title" x="180" y="222">Pod spec</text>
  <text class="box-body" x="180" y="244">
    <tspan x="180" dy="0">limits:</tspan>
    <tspan x="180" dy="16">example.com/gpu = 1</tspan>
  </text>

  <rect class="group group-api" x="340" y="50" width="720" height="450" rx="18" ry="18"/>
  <text class="group-title" x="700" y="92">API Server + etcd</text>
  <rect class="box" x="390" y="125" width="240" height="82" rx="12" ry="12"/>
  <text class="box-title" x="510" y="154">DeviceClass</text>
  <text class="box-body" x="510" y="180">extendedResourceName mapping</text>
  <rect class="box" x="390" y="235" width="240" height="82" rx="12" ry="12"/>
  <text class="box-title" x="510" y="264">ResourceSlice</text>
  <text class="box-body" x="510" y="290">DRA device inventory per node</text>
  <rect class="box" x="735" y="125" width="275" height="82" rx="12" ry="12"/>
  <text class="box-title" x="872.5" y="154">Node.status.capacity</text>
  <text class="box-body" x="872.5" y="180">(device plugin path)</text>
  <rect class="box" x="735" y="235" width="275" height="82" rx="12" ry="12"/>
  <text class="box-title" x="872.5" y="264">Special ResourceClaim</text>
  <text class="box-body" x="872.5" y="290">(created by scheduler)</text>
  <rect class="box" x="480" y="355" width="440" height="98" rx="12" ry="12"/>
  <text class="box-title-small" x="700" y="387">Pod.status.extendedResourceClaimStatus</text>
  <text class="box-body" x="700" y="415">container/resource -&gt; requestName</text>

  <rect class="group group-scheduler" x="1100" y="160" width="360" height="390" rx="18" ry="18"/>
  <text class="group-title" x="1280" y="200">kube-scheduler</text>
  <rect class="box" x="1180" y="225" width="250" height="78" rx="12" ry="12"/>
  <text class="box-title" x="1305" y="254">NodeResourcesFit</text>
  <text class="box-body" x="1305" y="279">ScalarResources + DynamicResources</text>
  <rect class="box" x="1180" y="330" width="250" height="86" rx="12" ry="12"/>
  <text class="box-title" x="1305" y="358">dynamicresources plugin</text>
  <text class="box-body" x="1305" y="380">
    <tspan x="1305" dy="0">PreFilter -&gt; Filter</tspan>
    <tspan x="1305" dy="16">Reserve -&gt; PreBind</tspan>
  </text>
  <rect class="box" x="1180" y="438" width="250" height="86" rx="12" ry="12"/>
  <text class="box-title" x="1305" y="466">DRA allocator</text>
  <text class="box-body" x="1305" y="488">build DeviceRequests + pick devices</text>

  <rect class="group group-node-a" x="1540" y="75" width="760" height="350" rx="18" ry="18"/>
  <text class="group-title" x="1920" y="115">Node A</text>
  <text class="group-subtitle" x="1920" y="140">(DRA-backed extended resource)</text>
  <rect class="label-bg" x="1572" y="186" width="182" height="46" rx="10" ry="10"/>
  <text class="edge-label" x="1588" y="205">
    <tspan x="1588" dy="0">if node uses</tspan>
    <tspan x="1588" dy="15">device plugin capacity</tspan>
  </text>
  <rect class="box" x="1560" y="243" width="125" height="78" rx="12" ry="12"/>
  <text class="box-title" x="1622.5" y="270">kubelet</text>
  <text class="box-body" x="1622.5" y="294">DRA manager</text>
  <rect class="box" x="1710" y="243" width="175" height="78" rx="12" ry="12"/>
  <text class="box-title" x="1797.5" y="270">DRA Driver</text>
  <text class="box-body" x="1797.5" y="294">PrepareResources</text>
  <rect class="box" x="1910" y="243" width="110" height="78" rx="12" ry="12"/>
  <text class="box-title" x="1965" y="282">CDI</text>
  <rect class="box" x="2045" y="243" width="115" height="78" rx="12" ry="12"/>
  <text class="box-title" x="2102.5" y="270">Container</text>
  <text class="box-body" x="2102.5" y="294">Runtime</text>
  <rect class="box" x="2185" y="243" width="90" height="78" rx="12" ry="12"/>
  <text class="box-title" x="2230" y="282">Containers</text>

  <rect class="group group-node-b" x="1540" y="560" width="760" height="180" rx="18" ry="18"/>
  <text class="group-title" x="1920" y="600">Node B (legacy device plugin)</text>
  <rect class="box" x="1840" y="624" width="160" height="78" rx="12" ry="12"/>
  <text class="box-title" x="1920" y="663">Device Plugin</text>

  <rect class="note" x="700" y="620" width="640" height="120" rx="16" ry="16"/>
  <text class="box-title" x="1020" y="656">Constraint:</text>
  <text class="box-body" x="1020" y="683">One node cannot expose the same resource name</text>
  <text class="box-body" x="1020" y="704">from both DRA and Device Plugin.</text>

  <path class="flow" d="M 265 232 L 320 232 L 320 560 L 1140 560 L 1140 264 L 1180 264"/>
  <path class="flow" d="M 630 166 L 680 166 L 680 105 L 1075 105 L 1075 246 L 1180 246"/>
  <path class="flow" d="M 630 276 L 680 276 L 680 336 L 1095 336 L 1095 264 L 1180 264"/>
  <path class="flow" d="M 1010 166 L 1110 166 L 1110 282 L 1180 282"/>

  <path class="flow" d="M 1305 303 L 1305 330"/>
  <path class="flow" d="M 1305 416 L 1305 438"/>
  <path class="flow" d="M 1180 481 L 1125 481 L 1125 276 L 1010 276"/>
  <path class="flow" d="M 1180 373 L 1130 373 L 1130 404 L 920 404"/>

  <path class="flow" d="M 920 404 L 1000 404 L 1000 570 L 1510 570 L 1510 282 L 1560 282"/>
  <path class="flow" d="M 1010 276 L 1080 276 L 1080 145 L 1510 145 L 1510 262 L 1560 262"/>
  <path class="flow" d="M 1685 282 L 1710 282"/>
  <path class="flow" d="M 1885 282 L 1910 282"/>
  <path class="flow" d="M 2020 282 L 2045 282"/>
  <path class="flow" d="M 2160 282 L 2185 282"/>

  <path class="flow-muted" d="M 1430 264 L 1495 264 L 1495 663 L 1840 663"/>

  <path class="note-link" d="M 1340 676 L 1498 676 L 1498 248 L 1540 248"/>
  <path class="note-link" d="M 1340 712 L 1498 712 L 1498 650 L 1540 650"/>
</svg>
